HIERARCHY
ROOT Hips
{
  OFFSET -331.093 83.8371 -317.828
  CHANNELS 6 Xposition Yposition Zposition Zrotation Xrotation Yrotation
  JOINT LeftUpLeg
  {
    OFFSET 8.64259 1.95398 -2.38835
    CHANNELS 3 Zrotation Xrotation Yrotation
    JOINT LeftLeg
    {
      OFFSET 43.7702 0 0
      CHANNELS 3 Zrotation Xrotation Yrotation
      JOINT LeftFoot
      {
        OFFSET 40.6238 0 0
        CHANNELS 3 Zrotation Xrotation Yrotation
        JOINT LeftToeBase
        {
          OFFSET 12.7242 0 0
          CHANNELS 3 Zrotation Xrotation Yrotation
          End Site
          {
            OFFSET 0 0 0
          }
        }
      }
    }
  }
  JOINT RightUpLeg
  {
    OFFSET -8.2249 1.95398 -2.59336
    CHANNELS 3 Zrotation Xrotation Yrotation
    JOINT RightLeg
    {
      OFFSET 43.5653 0 0
      CHANNELS 3 Zrotation Xrotation Yrotation
      JOINT RightFoot
      {
        OFFSET 40.6238 0 0
        CHANNELS 3 Zrotation Xrotation Yrotation
        JOINT RightToeBase
        {
          OFFSET 12.7242 0 0
          CHANNELS 3 Zrotation Xrotation Yrotation
          End Site
          {
            OFFSET 0 0 0
          }
        }
      }
    }
  }
  JOINT Spine
  {
    OFFSET 0.165834 0.87714 6.61349
    CHANNELS 3 Zrotation Xrotation Yrotation
    JOINT Spine1
    {
      OFFSET 7.38963 1.71661e-005 0
      CHANNELS 3 Zrotation Xrotation Yrotation
      JOINT Spine2
      {
        OFFSET 11.9445 1.14441e-005 0
        CHANNELS 3 Zrotation Xrotation Yrotation
        JOINT Spine3
        {
          OFFSET 14.7254 4.19617e-005 0
          CHANNELS 3 Zrotation Xrotation Yrotation
          JOINT Spine4
          {
            OFFSET 10.9679 0 0
            CHANNELS 3 Zrotation Xrotation Yrotation
            JOINT RightShoulder
            {
              OFFSET 2.46616 -1.6653 3.69651
              CHANNELS 3 Zrotation Xrotation Yrotation
              JOINT RightArm
              {
                OFFSET 13.0012 0 0
                CHANNELS 3 Zrotation Xrotation Yrotation
                JOINT RightForeArm
                {
                  OFFSET 28.7848 1.62311e-005 0
                  CHANNELS 3 Zrotation Xrotation Yrotation
                  JOINT RightHand
                  {
                    OFFSET 26.5688 1.62095e-005 0
                    CHANNELS 3 Zrotation Xrotation Yrotation
                    End Site
                    {
                      OFFSET 0 0 0
                    }
                  }
                }
              }
            }
            JOINT LeftShoulder
            {
              OFFSET 2.38034 -1.29275 -3.7523
              CHANNELS 3 Zrotation Xrotation Yrotation
              JOINT LeftArm
              {
                OFFSET 16.3182 6.07031e-005 0
                CHANNELS 3 Zrotation Xrotation Yrotation
                JOINT LeftForeArm
                {
                  OFFSET 27.0901 0 0
                  CHANNELS 3 Zrotation Xrotation Yrotation
                  JOINT LeftHand
                  {
                    OFFSET 24.5451 1.51738e-005 0
                    CHANNELS 3 Zrotation Xrotation Yrotation
                    End Site
                    {
                      OFFSET 0 0 0
                    }
                  }
                }
              }
            }
            JOINT Neck
            {
              OFFSET 5.0226 -0.0266342 0
              CHANNELS 3 Zrotation Xrotation Yrotation
              JOINT Head
              {
                OFFSET 6.69364 2.86102e-005 0
                CHANNELS 3 Zrotation Xrotation Yrotation
                End Site
                {
                  OFFSET 0 0 0
                }
              }
            }
          }
        }
      }
    }
  }
}
MOTION
Frames:	12
Frame Time:	0.0416667
-59.4528 99.0938 50.3956 -77.5001 -86.0072 -76.7033 -174.614 6.39784 91.9378 -11.5889 3.99499 -0.744144 62.8435 1.61445 2.98031 28.0818 -1.17253 -3.23374 172.204 3.38461 90.1522 -8.63012 -5.47889 -1.89015 63.1858 -1.91102 -1.03812 28.7486 -0.38222 -3.24782 -0.144393 6.86906 -90.0179 13.1358 -0.295216 0.000651155 1.46489 -0.294901 0.0136492 -21.0705 -0.281772 -0.0881013 -1.05788 -0.281765 -0.0880961 91.3524 -39.5741 -100.807 32.6884 -17.9728 -1.81682 -5.32357 -11.3946 -37.6228 -7.8311 -0.556679 2.65987 -96.7911 -48.9024 68.8359 -22.7781 11.7976 2.02916 5.39813 16.277 -32.894 12.4002 1.01536 4.1453 -3.85038 -24.6779 -1.64068 -9.29605 -23.8837 -9.37892 
-59.442 99.0926 50.4705 -75.8509 -86.155 -75.0221 -174.602 6.48092 91.9797 -11.5834 4.238 -0.77497 62.6411 1.57876 3.23456 28.4452 -1.05269 -3.8858 172.167 3.43837 90.1674 -8.59868 -5.38531 -1.84443 63.2295 -1.94951 -1.06003 28.8111 -0.392484 -3.31003 -0.12743 6.85482 -90.024 13.1643 -0.264432 -0.0151874 1.49334 -0.264841 -0.00353906 -21.042 -0.247642 -0.0939656 -1.02936 -0.247636 -0.0939521 91.2897 -40.0287 -100.795 32.4846 -18.0033 -1.64185 -5.38692 -11.7663 -37.5675 -8.67605 -0.61223 2.66493 -96.9235 -48.8875 68.6361 -22.5356 11.7691 1.95817 5.26096 16.0556 -32.8242 11.4859 0.96583 4.30363 -1.89118 -18.4845 -1.31659 -8.20563 -17.9036 -6.05579 
-59.4287 99.0923 50.5227 -74.3858 -86.2115 -73.5958 -174.571 6.21866 91.9384 -10.9833 4.25399 -0.832936 62.6041 1.84156 3.4092 28.2582 -1.25455 -4.25611 172.147 3.75357 90.1192 -9.18616 -5.34395 -1.8466 63.2051 -1.78726 -0.976518 28.898 -0.373841 -3.12023 -0.0979629 6.82769 -90.0318 13.2185 -0.209729 -0.0374725 1.54753 -0.21117 -0.0282171 -20.9877 -0.188774 -0.09878 -0.975087 -0.188773 -0.0987818 91.3106 -40.109 -100.738 32.5682 -17.8698 -1.45536 -5.70059 -11.9664 -37.622 -8.76408 -0.611597 2.5457 -96.6892 -48.6852 68.9151 -22.7941 11.7779 1.72539 5.42473 16.4985 -32.6815 12.0819 0.933563 3.7011 0.521216 -13.0093 -0.960721 -9.30923 -12.542 -3.70114 
-59.4462 99.0923 50.5663 -73.067 -86.4228 -72.2875 -174.621 6.35371 91.9241 -11.2129 4.41556 -0.791072 62.6361 1.75418 3.28104 28.3003 -1.15439 -3.89743 172.109 3.71696 90.1487 -9.03647 -5.10798 -1.83281 63.2731 -1.89504 -1.03331 28.6924 -0.373403 -3.19631 -0.0736672 6.81592 -90.0596 13.242 -0.174892 -0.0973919 1.57103 -0.179008 -0.0896059 -20.9642 -0.137543 -0.14545 -0.951513 -0.137537 -0.145453 91.3552 -39.8987 -100.716 32.7179 -17.5452 -1.32603 -5.71173 -11.8138 -37.7106 -8.48005 -0.608284 2.79997 -96.5555 -48.8655 69.1711 -22.68 11.8154 1.39073 5.46128 16.5536 -32.7259 12.5046 1.02866 4.18881 1.87609 -8.64786 -0.205211 -9.89782 -8.4127 -1.7591 
-59.4646 99.0854 50.6125 -72.5471 -86.6477 -71.7509 -174.611 6.45918 91.9738 -11.4875 4.72735 -0.795851 62.7446 1.67698 3.09417 28.5046 -0.947894 -3.57017 172.072 3.44436 90.1472 -8.71309 -4.95294 -1.78305 63.3673 -2.00506 -1.09264 28.5397 -0.355416 -3.10005 -0.0627906 6.7974 -90.079 13.279 -0.16269 -0.137636 1.60802 -0.168584 -0.130357 -20.9271 -0.113804 -0.180165 -0.914475 -0.113809 -0.180181 91.1988 -39.799 -101.013 32.6899 -17.3887 -1.08853 -5.30061 -11.7028 -37.5622 -8.82087 -0.609503 2.48398 -96.701 -49.0328 69.0117 -22.8413 11.2834 1.73498 5.99955 17.0568 -33.0962 11.4513 0.953962 4.23037 2.60924 -4.94301 0.711462 -10.5448 -4.94136 -0.91374 
-59.4841 99.1594 50.6264 -72.4639 -86.8452 -71.6858 -174.562 6.08471 92.0004 -10.8509 4.62761 -0.809084 62.6917 1.78081 2.81001 27.9137 -1.3987 -3.79109 172.011 3.68298 90.137 -9.34988 -4.30555 -1.70739 63.0377 -1.64461 -0.90022 29.0546 -0.335752 -2.74478 -0.0567359 6.80183 -90.0804 13.2726 -0.151331 -0.14192 1.60163 -0.157437 -0.13513 -20.9335 -0.101689 -0.180849 -0.920843 -0.101692 -0.180851 91.2749 -39.8181 -100.876 32.4751 -17.3959 -1.28316 -4.72261 -11.1268 -37.3413 -8.97097 -0.522601 1.0475 -97.0017 -49.3281 68.6666 -22.578 11.1924 1.85599 5.65415 16.521 -32.8598 11.1205 0.907761 4.0537 3.13569 -2.24683 0.272831 -10.6927 -2.34588 1.0329 
-59.4831 99.1341 50.6154 -71.4734 -86.8645 -70.6912 -174.566 6.18152 91.9914 -10.8481 4.93757 -0.854804 62.3445 1.78605 3.37182 28.514 -1.02123 -3.96052 172.044 3.75808 90.1528 -9.34553 -4.41132 -1.74954 63.1331 -1.70339 -0.932618 28.9405 -0.329152 -2.7289 -0.026957 6.80555 -90.0727 13.2777 -0.0885137 -0.134218 1.60677 -0.09434 -0.130205 -20.9284 -0.0440911 -0.154627 -0.915692 -0.0440866 -0.154623 91.3254 -40.022 -100.734 32.3856 -17.2579 -1.47018 -4.96294 -11.7017 -37.554 -8.32511 -0.544413 1.92148 -96.8788 -49.3398 68.8509 -22.5841 11.257 1.79754 5.65385 16.7847 -32.6499 11.2184 0.869178 3.67325 3.37003 0.0200529 -0.379275 -10.2321 -0.151905 3.26494 
-59.5144 99.1536 50.6113 -70.4385 -86.9319 -69.632 -174.576 6.20537 92.0394 -10.8084 5.01729 -0.818609 62.3505 1.63559 3.27922 28.3904 -1.17501 -4.30713 172.019 3.71981 90.1885 -9.11585 -4.46868 -1.7312 63.0115 -1.73141 -0.944327 28.8148 -0.325558 -2.74415 -0.00643852 6.80725 -90.0869 13.2619 -0.0546319 -0.166943 1.59099 -0.0619172 -0.164385 -20.9441 -0.00193294 -0.175643 -0.931431 -0.00193302 -0.175647 91.3693 -39.9464 -100.679 32.3274 -17.3154 -1.55581 -5.46121 -11.659 -37.3927 -8.48738 -0.568083 2.1379 -96.7476 -49.3861 69.058 -22.661 11.3131 1.71994 5.64912 16.7988 -32.6701 11.1546 0.83601 3.43024 4.46306 2.23637 1.08153 -10.8554 1.82419 2.46445 
-59.5578 99.0751 50.569 -70.0984 -86.9731 -69.3118 -174.52 5.98437 92.0585 -10.4819 5.01612 -0.875366 62.7292 1.73329 2.53358 28.4512 -0.768382 -2.51189 172.048 3.6653 90.1731 -9.21569 -4.51903 -1.72808 63.3545 -1.8543 -1.0161 28.8435 -0.350992 -2.94813 0.00256604 6.80419 -90.08 13.2655 -0.0334893 -0.155902 1.5945 -0.0403113 -0.154282 -20.9406 0.0149225 -0.158752 -0.927933 0.0149095 -0.158769 91.1323 -40.2777 -100.999 32.1112 -17.4731 -1.25357 -4.67634 -10.8777 -37.5484 -9.53475 -0.603049 1.80598 -96.6415 -49.3213 69.193 -22.842 11.243 1.92863 5.8157 16.8273 -33.0116 10.8799 0.814793 3.41139 4.93367 3.40333 1.31358 -10.1437 3.02117 1.37276 
-59.735 99.104 50.4693 -68.8731 -87.4318 -68.2083 -174.429 6.33628 92.1346 -11.0116 5.53021 -0.997704 62.5458 1.64073 2.95696 28.1929 -1.18351 -3.67441 172.084 3.35779 90.2194 -8.71234 -4.14199 -1.82655 63.4899 -2.05564 -1.11961 28.4532 -0.339334 -2.99406 -0.0178652 6.83689 -90.0746 13.2001 -0.0713813 -0.140455 1.52911 -0.0774898 -0.137187 -21.006 -0.0258749 -0.155423 -0.993348 -0.025861 -0.155416 91.1824 -40.2246 -100.927 32.3032 -17.3425 -1.17625 -4.53929 -11.0421 -37.4971 -9.56316 -0.586614 1.55061 -96.7571 -49.3676 69.0385 -22.889 10.8681 1.77827 6.07255 17.3759 -32.797 10.8727 0.799941 3.28764 3.16005 3.57993 1.34649 -3.21143 3.28113 1.59053 
-59.6901 99.0956 50.4973 -67.2396 -87.4859 -66.5809 -174.422 6.28732 92.1008 -10.8382 5.79409 -1.04663 62.4874 1.80681 3.32701 28.0055 -1.34199 -3.82462 171.996 3.3544 90.1602 -8.68692 -4.17741 -1.75623 63.3601 -1.95414 -1.06517 28.6981 -0.360029 -3.07934 0.0142009 6.8578 -90.0911 13.1582 -0.0156073 -0.18023 1.48728 -0.0235185 -0.179374 -21.0478 0.0392859 -0.176581 -1.03514 0.0392806 -0.176593 91.3533 -40.1401 -100.655 32.3529 -17.325 -1.16933 -4.976 -11.7104 -37.3227 -8.92621 -0.600756 2.23907 -97.1894 -49.5832 68.476 -22.6232 10.9776 1.78413 5.95446 17.1622 -32.8802 10.9989 0.84747 3.61962 2.6878 3.14535 2.2268 3.56662 2.70709 -0.147531 
-59.7268 99.1179 50.5244 -63.9069 -87.6226 -63.3655 -174.461 6.29778 92.0075 -10.6471 6.08366 -1.07663 62.0054 1.62937 3.52571 28.5991 -0.963528 -3.96697 171.895 3.54631 90.0496 -8.95834 -4.03641 -1.71018 63.3862 -1.89615 -1.03749 28.8098 -0.357562 -3.01634 0.000407954 6.87346 -90.0635 13.1269 -0.0296768 -0.123295 1.45598 -0.0350747 -0.121875 -21.0791 0.00875524 -0.126503 -1.06649 0.00874466 -0.126523 91.2243 -40.4008 -100.809 32.2183 -17.2655 -1.22134 -5.11844 -11.4858 -37.2538 -8.99088 -0.590075 2.03363 -97.2874 -49.4889 68.3017 -22.4548 11.4316 1.77128 5.54662 16.7156 -32.6518 11.0885 0.865407 3.71705 2.42394 2.63292 1.86821 10.5074 2.20447 -0.67893 
